#!OML:ASF F:\twosubjects\two\Thursday\Session 1\Rory.ASF
:FULLY-SPECIFIED
:DEGREES
401
root 11.7894 18.2551 12.3038 16.7053 -92.9676 -11.7336
lowerback -1.57257 -1.24932 -1.06806
upperback -0.634236 -1.65422 0.167014
thorax 0.266958 -0.827409 0.739339
lowerneck -5.55761 -6.94088 -7.91321
upperneck 8.27179 -9.99878 12.3375
head 4.40543 -4.68616 4.47042
rclavicle 2.6033e-014 3.57812e-015
rhumerus -43.3 -38.8501 -63.0575
rradius 26.0378
rwrist 11.6225
rhand -32.4589 29.4862
rfingers 7.12502
rthumb -5.69178 -0.417309
lclavicle 2.6033e-014 3.57812e-015
lhumerus -43.8201 25.8558 71.1508
lradius 30.2079
lwrist -1.26657
lhand -4.3323 34.7064
lfingers 7.12502
lthumb 21.4348 63.5406
rfemur -15.87 11.4827 22.049
rtibia 38.3867
rfoot -25.9065 -4.14307
rtoes -22.1832
lfemur -16.2266 2.16875 -23.2996
ltibia 37.1326
lfoot -15.9762 -17.8854
ltoes 40.8349
402
root 11.7874 18.2841 12.3157 18.6438 -92.9162 -13.12
lowerback -2.14635 -1.41667 -0.982412
upperback -0.863252 -1.87668 0.221375
thorax 0.357379 -0.939481 0.730911
lowerneck -5.5118 -6.92081 -8.01403
upperneck 8.51805 -9.97131 12.1714
head 4.46508 -4.67936 4.43712
rclavicle -2.24689e-014 2.98177e-016
rhumerus -42.2515 -37.6285 -63.7786
rradius 26.6543
rwrist 10.4755
rhand -32.8312 29.5697
rfingers 7.12502
rthumb -6.05121 -0.323897
lclavicle -2.24689e-014 2.98177e-016
lhumerus -43.9012 25.2978 71.1739
lradius 31.2047
lwrist -1.05586
lhand -4.58692 34.0661
lfingers 7.12502
lthumb 21.1903 62.928
rfemur -16.3362 11.316 21.8731
rtibia 38.0681
rfoot -24.347 -0.346754
rtoes -13.3235
lfemur -16.5776 1.726 -23.4096
ltibia 36.6595
lfoot -15.4323 -17.832
ltoes 42.3799
403
root 11.7912 18.3288 12.3272 19.9999 -92.9492 -13.7944
lowerback -2.76387 -1.53201 -1.0652
upperback -1.0966 -2.0279 0.387331
thorax 0.475669 -1.01611 0.929071
lowerneck -5.31809 -6.91851 -7.99999
upperneck 8.33544 -9.91481 11.8337
head 4.3529 -4.67319 4.34259
rclavicle 1.08213e-014 5.86415e-015
rhumerus -40.9615 -36.389 -64.3984
rradius 26.9738
rwrist 9.38072
rhand -32.8731 29.4776
rfingers 7.12502
rthumb -6.09175 -0.414786
lclavicle 1.08213e-014 5.86415e-015
lhumerus -43.7237 24.4849 71.6488
lradius 32.2528
lwrist -0.458941
lhand -5.66297 34.5375
lfingers 7.12502
lthumb 20.1563 63.5118
rfemur -17.0426 11.5964 21.589
rtibia 37.8469
rfoot -21.6724 6.67821
rtoes 14.0525
lfemur -17.0003 1.26106 -23.4901
ltibia 36.0521
lfoot -15.4542 -17.1578
ltoes 42.0394
404
root 11.7949 18.3673 12.3333 29.707 -93.1274 -23.1142
lowerback -3.15819 -1.56423 -1.55751
upperback -1.18263 -2.05345 0.263722
thorax 0.621071 -1.02972 1.06687
lowerneck -5.25219 -7.08356 -7.9103
upperneck 8.15755 -10.1156 11.7012
head 4.29739 -4.77911 4.27478
rclavicle -1.55922e-015 -2.48481e-015
rhumerus -39.96 -35.8576 -64.7385
rradius 27.3389
rwrist 8.68579
rhand -32.6297 28.8599
rfingers 7.12502
rthumb -5.85671 -1.03914
lclavicle -1.55922e-015 -2.48481e-015
lhumerus -43.3033 23.4426 72.0741
lradius 33.3236
lwrist 0.0015205
lhand -6.38178 35.1833
lfingers 7.12502
lthumb 19.4653 64.229
rfemur -17.3857 12.3526 20.8373
rtibia 37.6993
rfoot -21.5065 6.64556
rtoes 18.3042
lfemur -17.099 1.13666 -24.0894
ltibia 35.4071
lfoot -15.793 -16.7537
ltoes 40.2766
405
root 11.807 18.3935 12.3367 33.2582 -93.1965 -26.38
lowerback -3.3019 -1.56214 -1.69493
upperback -1.28041 -2.04578 0.149107
thorax 0.601451 -1.02595 1.0242
lowerneck -5.51062 -7.24316 -7.89735
upperneck 8.55582 -10.3665 11.715
head 4.48695 -4.88626 4.2437
rclavicle -1.40578e-014 -7.55382e-015
rhumerus -39.2896 -35.3041 -65.1008
rradius 28.2117
rwrist 7.62141
rhand -32.0391 28.2815
rfingers 7.12502
rthumb -5.28645 -1.63255
lclavicle -1.40578e-014 -7.55382e-015
lhumerus -42.9516 22.4053 72.1764
lradius 34.3864
lwrist 0.303591
lhand -6.3351 35.2271
lfingers 7.12502
lthumb 19.5102 64.2683
rfemur -17.7114 12.0339 20.4568
rtibia 37.6222
rfoot -21.2071 7.47188
rtoes 20.8872
lfemur -17.1486 1.24164 -24.3126
ltibia 34.7728
lfoot -15.7659 -16.7246
ltoes 39.9405
406
root 11.8299 18.4087 12.3557 32.4635 -93.0554 -25.2107
lowerback -3.31466 -1.56045 -1.35568
upperback -1.46315 -2.05779 0.129941
thorax 0.409249 -1.03168 0.817412
lowerneck -5.73881 -7.35881 -7.87914
upperneck 8.92811 -10.5596 11.7399
head 4.65848 -4.96566 4.22065
rclavicle 1.94964e-014 6.75868e-015
rhumerus -38.5566 -34.513 -65.3968
rradius 28.8358
rwrist 6.7249
rhand -31.5342 28.3685
rfingers 7.12502
rthumb -4.79898 -1.55716
lclavicle 1.94964e-014 6.75868e-015
lhumerus -42.5837 21.2998 72.3013
lradius 35.2926
lwrist 0.575948
lhand -6.26215 35.1357
lfingers 7.12502
lthumb 19.5803 64.1697
rfemur -18.2402 10.8233 20.4159
rtibia 37.5985
rfoot -20.7459 8.49331
rtoes 20.2208
lfemur -17.3222 1.12242 -24.232
ltibia 34.1573
lfoot -15.5345 -16.545
ltoes 39.7969
407
root 11.8509 18.4172 12.3734 35.8198 -93.3211 -28.3145
lowerback -3.33679 -1.46355 -1.47175
upperback -1.50688 -1.9256 0.0351314
thorax 0.374032 -0.965417 0.790431
lowerneck -5.91254 -7.51452 -7.87861
upperneck 8.87932 -10.7622 11.7926
head 4.69699 -5.0565 4.21333
rclavicle -9.5106e-015 5.96354e-016
rhumerus -37.449 -33.7559 -65.6607
rradius 29.0536
rwrist 6.03645
rhand -31.6534 28.4073
rfingers 7.12502
rthumb -4.9141 -1.51571
lclavicle -9.5106e-015 5.96354e-016
lhumerus -41.9353 20.241 72.5858
lradius 36.0313
lwrist 0.593686
lhand -6.53672 35.0818
lfingers 7.12502
lthumb 19.3163 64.1424
rfemur -18.5455 10.95 20.0261
rtibia 37.5435
rfoot -20.7312 7.60694
rtoes 15.3593
lfemur -17.3819 1.02786 -24.6113
ltibia 33.662
lfoot -15.7174 -16.3353
ltoes 37.8617
408
root 11.8672 18.4276 12.3746 37.6784 -93.7941 -30.227
lowerback -3.16519 -1.31676 -1.86934
upperback -1.40204 -1.71831 -0.0851811
thorax 0.388154 -0.860705 0.900185
lowerneck -6.1531 -7.56284 -8.24468
upperneck 8.9055 -10.8215 12.1337
head 4.79135 -5.07173 4.36316
rclavicle 3.21161e-015 5.1684e-015
rhumerus -36.2184 -32.7658 -66.1142
rradius 29.5587
rwrist 4.43768
rhand -31.2126 27.3045
rfingers 7.12502
rthumb -4.48845 -2.62795
lclavicle 3.21161e-015 5.1684e-015
lhumerus -41.2386 19.2927 72.7294
lradius 36.7789
lwrist 0.52238
lhand -7.02057 34.779
lfingers 7.12502
lthumb 18.851 63.8855
rfemur -18.426 11.8662 19.6441
rtibia 37.4058
rfoot -21.0508 6.61866
rtoes 13.0308
lfemur -17.158 1.22619 -25.0177
ltibia 33.312
lfoot -15.9307 -16.3076
ltoes 36.6676
409
root 11.8873 18.4277 12.3782 34.3477 -93.8483 -27.0037
lowerback -2.85268 -1.231 -1.66567
upperback -1.31345 -1.61275 -0.134904
thorax 0.294289 -0.807557 0.745252
lowerneck -6.22988 -7.62092 -8.20833
upperneck 8.80828 -10.918 12.3395
head 4.79529 -5.10841 4.41059
rclavicle 4.37637e-015 -9.93923e-015
rhumerus -35.3285 -31.6195 -66.6328
rradius 30.0509
rwrist 4.25074
rhand -31.9842 27.2826
rfingers 7.12502
rthumb -5.23346 -2.63277
lclavicle 4.37637e-015 -9.93923e-015
lhumerus -40.6049 18.2143 72.7844
lradius 37.6363
lwrist 0.983191
lhand -7.80885 34.6727
lfingers 7.12502
lthumb 18.0928 63.8512
rfemur -18.2956 11.2167 19.8114
rtibia 37.1714
rfoot -21.0297 7.38159
rtoes 12.3565
lfemur -16.9771 1.34224 -24.8782
ltibia 33.0871
lfoot -15.9712 -16.2131
ltoes 36.833
410
root 11.9185 18.4191 12.3866 30.9248 -93.8803 -23.4362
lowerback -2.66476 -1.22685 -1.40062
upperback -1.33854 -1.61718 -0.106567
thorax 0.157314 -0.809448 0.630637
lowerneck -6.01911 -7.76253 -7.70808
upperneck 8.24924 -11.1002 12.2381
head 4.57609 -5.207 4.29617
rclavicle -1.42411e-014 2.83268e-015
rhumerus -34.6525 -30.7601 -66.8465
rradius 31.0273
rwrist 3.77607
rhand -31.123 26.8425
rfingers 7.12502
rthumb -4.4019 -3.09178
lclavicle -1.42411e-014 2.83268e-015
lhumerus -40.0723 17.7392 72.5573
lradius 38.3397
lwrist 0.724613
lhand -7.88785 34.7178
lfingers 7.12502
lthumb 18.0167 63.9033
rfemur -18.4866 10.2446 19.9369
rtibia 36.8618
rfoot -20.4878 8.6562
rtoes 14.1574
lfemur -17.195 1.36858 -24.7506
ltibia 32.9891
lfoot -16.0473 -15.8879
ltoes 37.0369
411
root 11.9563 18.4134 12.3911 31.5668 -94.1226 -24.0078
lowerback -2.43584 -1.28539 -1.63807
upperback -1.28528 -1.69245 -0.0545609
thorax 0.0937287 -0.845178 0.819322
lowerneck -5.77725 -7.8271 -7.55647
upperneck 7.47844 -11.1236 12.2213
head 4.29568 -5.2391 4.28244
rclavicle -2.90101e-014 2.68359e-015
rhumerus -33.361 -29.7762 -67.1927
rradius 31.3864
rwrist 3.49301
rhand -30.8751 26.5832
rfingers 7.12502
rthumb -4.16252 -3.35593
lclavicle -2.90101e-014 2.68359e-015
lhumerus -39.5333 17.9747 72.1444
lradius 38.8524
lwrist -0.369357
lhand -7.71071 34.8498
lfingers 7.12502
lthumb 18.1872 64.0195
rfemur -18.5359 10.9875 19.7042
rtibia 36.5471
rfoot -20.3215 8.67428
rtoes 19.3098
lfemur -17.393 1.77082 -24.9837
ltibia 32.9695
lfoot -16.0681 -15.8281
ltoes 36.5303
412
root 11.9898 18.4063 12.3972 34.7871 -94.1216 -27.6054
lowerback -1.90939 -1.33735 -1.95284
upperback -0.98554 -1.75909 -0.0761604
thorax 0.116574 -0.877456 0.980294
lowerneck -5.79379 -7.9353 -7.60203
upperneck 6.92423 -11.2246 12.4237
head 4.15696 -5.29267 4.34883
rclavicle 2.82709e-014 1.31198e-014
rhumerus -31.4557 -28.2401 -67.815
rradius 30.9217
rwrist 2.9652
rhand -31.9516 26.0521
rfingers 7.12502
rthumb -5.20201 -3.86401
lclavicle 2.82709e-014 1.31198e-014
lhumerus -38.5998 17.4651 72.2756
lradius 39.4674
lwrist -0.0613425
lhand -8.80185 35.3373
lfingers 7.12502
lthumb 17.1372 64.6015
rfemur -18.064 11.4818 19.5498
rtibia 36.3045
rfoot -20.7171 7.74407
rtoes 18.5666
lfemur -17.0593 2.22803 -25.2437
ltibia 32.9264
lfoot -16.1524 -16.0898
ltoes 36.1631
413
root 12.0198 18.3987 12.3994 39.4466 -94.2969 -32.6433
lowerback -1.38789 -1.29809 -2.477
upperback -0.704751 -1.70659 -0.224745
thorax 0.121051 -0.851295 1.13124
lowerneck -6.015 -8.08874 -7.76027
upperneck 6.83522 -11.4685 12.9977
head 4.23767 -5.39055 4.52106
rclavicle 1.69526e-014 9.19379e-015
rhumerus -29.4989 -25.4143 -68.7138
rradius 30.1475
rwrist 0.844399
rhand -32.8053 26.1981
rfingers 7.12502
rthumb -6.02622 -3.69618
lclavicle 1.69526e-014 9.19379e-015
lhumerus -37.4945 16.266 72.5754
lradius 40.0614
lwrist 1.10041
lhand -9.62878 35.5636
lfingers 7.12502
lthumb 16.3411 64.8952
rfemur -17.7266 10.484 19.2231
rtibia 36.1676
rfoot -20.9305 8.35999
rtoes 18.5806
lfemur -16.6683 2.51002 -25.6784
ltibia 32.7849
lfoot -16.3233 -16.2425
ltoes 36.6908
414
root 12.0494 18.396 12.3899 40.1514 -94.9747 -33.3865
lowerback -1.17016 -1.16787 -3.23421
upperback -0.584414 -1.53022 -0.329883
thorax 0.132176 -0.763444 1.45331
lowerneck -6.18221 -8.1599 -7.93609
upperneck 6.79641 -11.6078 13.5591
head 4.31524 -5.43897 4.70293
rclavicle -1.22377e-014 -1.09332e-015
rhumerus -29.0154 -26.8788 -68.286
rradius 30.8861
rwrist 2.71975
rhand -31.6285 27.0698
rfingers 7.12502
rthumb -4.89 -2.85377
lclavicle -1.22377e-014 -1.09332e-015
lhumerus -36.6355 15.3836 72.5591
lradius 40.6204
lwrist 1.68835
lhand -10.4781 36.0215
lfingers 7.12502
lthumb 15.5232 65.4184
rfemur -17.8346 10.4449 18.7731
rtibia 36.1049
rfoot -21.1796 9.20342
rtoes 22.6305
lfemur -16.6537 3.34344 -26.1677
ltibia 32.5561
lfoot -16.2903 -16.587
ltoes 37.0481
